<?xml version="1.0" standalone="no"?>
<!DOCTYPE svg PUBLIC "-//W3C//DTD SVG 20010904//EN"
 "http://www.w3.org/TR/2001/REC-SVG-20010904/DTD/svg10.dtd">
<svg version="1.0" xmlns="http://www.w3.org/2000/svg"
 width="253.000000pt" height="150.000000pt" viewBox="0 0 253.000000 150.000000"
 preserveAspectRatio="xMidYMid meet">

<g transform="translate(0.000000,150.000000) scale(0.100000,-0.100000)"
fill="#000000" stroke="none">
<path d="M1205 1021 c-3 -5 -1 -12 5 -16 5 -3 10 1 10 9 0 18 -6 21 -15 7z"/>
<path d="M1620 977 c-17 -83 4 -111 48 -64 23 25 30 67 10 67 -6 0 -20 -7 -30
-17 -20 -18 -22 -12 -9 35 5 17 6 32 1 32 -5 0 -14 -24 -20 -53z m60 -27 c0
-16 -40 -51 -50 -45 -13 8 18 55 36 55 8 0 14 -4 14 -10z"/>
<path d="M1716 983 c-3 -21 -5 -54 -5 -73 1 -30 2 -28 10 15 4 27 11 60 14 72
3 13 1 23 -4 23 -4 0 -11 -17 -15 -37z"/>
<path d="M475 979 c-46 -55 -18 -117 41 -91 33 16 26 26 -9 13 -50 -19 -58 27
-14 77 25 26 44 28 50 5 4 -14 5 -12 6 5 2 34 -41 29 -74 -9z"/>
<path d="M1061 959 c-1 -29 -4 -56 -8 -62 -9 -15 52 -1 82 19 16 11 25 26 25
43 0 37 -17 51 -60 51 l-37 0 -2 -51z m89 1 c0 -21 -35 -50 -62 -50 -20 0 -21
4 -12 48 4 17 14 33 23 35 24 5 51 -11 51 -33z"/>
<path d="M771 971 c-7 -5 -22 -6 -32 -4 -20 6 -49 -12 -49 -30 0 -5 8 -3 18 6
21 19 42 22 42 6 0 -6 10 -19 23 -30 13 -11 17 -19 10 -20 -7 -1 -17 -2 -22
-3 -17 -2 -24 -16 -8 -16 48 0 61 28 25 53 l-23 16 23 7 c12 3 22 10 22 15 0
11 -11 11 -29 0z"/>
<path d="M840 960 c-22 -22 -26 -50 -8 -68 23 -23 75 28 62 62 -9 24 -33 27
-54 6z m40 -19 c0 -25 -27 -48 -41 -34 -8 8 -7 17 0 32 14 26 41 28 41 2z"/>
<path d="M932 968 c-18 -18 -15 -34 11 -51 21 -15 21 -16 2 -18 -11 -1 -23 -1
-27 0 -5 0 -8 -3 -8 -9 0 -16 36 -12 51 6 12 15 11 19 -9 32 -25 16 -29 32 -8
32 8 0 18 5 21 10 9 14 -19 12 -33 -2z"/>
<path d="M1248 969 c-24 -13 -23 -27 5 -50 13 -11 17 -19 10 -20 -7 -1 -17 -2
-22 -3 -17 -2 -24 -16 -8 -16 48 0 61 28 25 53 l-23 16 23 7 c12 3 22 10 22
15 0 12 -11 11 -32 -2z"/>
<path d="M1307 938 c-4 -27 -9 -59 -13 -73 -4 -15 -2 -25 5 -25 6 0 11 13 11
29 0 23 4 28 19 24 19 -5 61 38 61 64 0 22 -29 27 -49 8 -18 -16 -19 -15 -23
2 -2 10 -7 -3 -11 -29z m47 -19 c-12 -13 -21 -16 -28 -9 -6 6 -2 18 15 36 20
21 25 23 27 9 2 -9 -4 -25 -14 -36z"/>
<path d="M1433 965 c-41 -29 -35 -80 8 -73 31 4 50 52 28 73 -13 13 -17 13
-36 0z m33 -20 c7 -18 -12 -45 -32 -45 -17 0 -18 32 -2 48 16 16 27 15 34 -3z"/>
<path d="M1766 958 c-36 -50 -7 -95 36 -57 23 20 23 20 1 7 -35 -20 -52 4 -19
26 28 18 35 46 12 46 -8 0 -22 -10 -30 -22z m34 9 c0 -2 -10 -12 -21 -23 -22
-19 -22 -19 -10 4 10 18 31 31 31 19z"/>
<path d="M1852 968 c-18 -18 -15 -34 11 -51 21 -15 21 -16 2 -18 -11 -1 -23
-1 -27 0 -5 0 -8 -3 -8 -9 0 -16 36 -12 51 6 12 15 11 19 -9 32 -25 16 -29 32
-8 32 8 0 18 5 21 10 9 14 -19 12 -33 -2z"/>
<path d="M568 940 c-3 -16 -2 -34 2 -40 8 -13 40 -2 40 13 0 6 7 2 15 -9 13
-18 14 -16 15 24 0 26 -4 41 -10 37 -5 -3 -10 -12 -10 -19 0 -7 -10 -21 -22
-32 l-21 -19 6 38 c3 20 2 37 -2 37 -5 0 -11 -13 -13 -30z"/>
<path d="M670 930 c0 -22 4 -40 9 -40 6 0 9 18 8 40 -1 22 -5 40 -9 40 -4 0
-8 -18 -8 -40z"/>
<path d="M1190 953 c0 -10 -3 -28 -6 -40 -4 -13 -2 -23 4 -23 5 0 12 18 14 40
2 22 0 40 -4 40 -5 0 -8 -8 -8 -17z"/>
<path d="M1500 929 c0 -35 2 -40 15 -29 8 6 17 20 20 31 9 28 25 23 32 -11 3
-16 10 -30 15 -30 5 0 7 9 4 20 -3 11 -9 29 -12 40 -7 27 -19 25 -42 -7 l-20
-28 5 28 c3 16 1 27 -6 27 -6 0 -11 -18 -11 -41z"/>
<path d="M1018 700 c-12 -11 -18 -19 -11 -20 6 0 15 5 18 10 3 6 13 10 21 10
27 0 11 -43 -23 -65 -18 -11 -32 -27 -33 -34 0 -12 3 -12 12 -3 7 7 32 12 56
12 29 0 41 4 36 11 -3 6 -17 9 -30 6 -29 -5 -30 -2 -4 25 25 27 25 44 1 58
-15 7 -25 5 -43 -10z"/>
<path d="M1140 694 c-31 -27 -43 -83 -17 -85 31 -3 54 4 75 24 30 27 29 61 -3
75 -21 10 -29 8 -55 -14z m65 -11 c7 -20 -35 -63 -61 -63 -26 0 -28 30 -4 56
27 28 55 31 65 7z"/>
<path d="M1258 700 c-12 -11 -18 -19 -11 -20 6 0 15 5 18 10 3 6 13 10 21 10
27 0 11 -43 -23 -65 -18 -11 -32 -27 -33 -34 0 -12 3 -12 12 -3 7 7 32 12 56
12 29 0 41 4 36 11 -3 6 -17 9 -30 6 -29 -5 -30 -2 -4 25 25 27 25 44 1 58
-15 7 -25 5 -43 -10z"/>
<path d="M1360 697 c0 -5 11 -7 25 -4 24 4 24 3 10 -13 -21 -23 -19 -26 12
-25 36 0 41 -23 6 -32 -15 -4 -34 -6 -40 -5 -7 2 -13 -2 -13 -8 0 -15 43 -12
68 6 28 20 28 42 0 53 -20 8 -21 10 -5 16 30 13 18 25 -23 23 -22 -1 -40 -6
-40 -11z"/>
<path d="M900 684 c0 -16 24 -84 29 -84 9 1 61 90 53 90 -4 0 -16 -14 -26 -30
-19 -34 -36 -31 -36 6 0 13 -4 24 -10 24 -5 0 -10 -3 -10 -6z"/>
</g>
</svg>
